<svg width="15" height="17" viewBox="0 0 15 17" fill="none" xmlns="http://www.w3.org/2000/svg">
<path d="M13.5 0H1.5C0.671667 0 0 0.6851 0 1.53V15.47C0 16.3149 0.671667 17 1.5 17H13.5C14.3283 17 15 16.3149 15 15.47V1.53C15 0.6851 14.3283 0 13.5 0ZM3.75 14.45V11.05L5.625 12.75L3.75 14.45ZM9.58333 14.45V9.37338C9.57521 8.97664 9.38792 8.5 8.54167 8.5C6.84708 8.5 4.94625 9.36934 4.92729 9.37805L3.75 9.92205V2.55H5.41667V7.37609C6.24875 7.09984 7.41187 6.8 8.54167 6.8C9.57187 6.8 10.1885 7.2131 10.5244 7.55969C11.2412 8.29919 11.251 9.2412 11.25 9.35V14.45H9.58333ZM10 5.3125H8.33333C8.98833 4.43594 9.39958 3.51348 9.58333 2.55H11.25C11.1375 3.5156 10.7537 4.44125 10 5.3125Z" fill="#430098"/>
</svg>
